# xmcd
#
# Track frame offsets: 
#        150
#        13531
#        28686
#        40828
#        52374
#        68733
#        80137
#        93720
#        108869
#        119615
#        133863
#        149898
#
# Disc length: 2240 seconds
#
# Revision: 0
# Processed by: cddbd v1.5.2PL0 Copyright (c) Steve Scherf et al.
# Submitted via: ExactAudioCopy v0.99pb5
#
DISCID=b808be0c
DTITLE=Holly Golightly and The Brokeoffs - Medicine County
DYEAR=2009
DGENRE=Alt. Rock
TTITLE0=Forget it
TTITLE1=Two Left Feet
TTITLE2=Medicine County
TTITLE3=I Can't Lose
TTITLE4=Murder In My Mind
TTITLE5=Blood on the Saddle (feat. Mr Tom Heinl)
TTITLE6=When He Comes
TTITLE7=Escalator
TTITLE8=Eyes in the Back of My Head
TTITLE9=Dearly Departed
TTITLE10=Don't Fail Me Now
TTITLE11=Jack O'Diamonds
EXTD=
EXTT0=
EXTT1=
EXTT2=
EXTT3=
EXTT4=
EXTT5=
EXTT6=
EXTT7=
EXTT8=
EXTT9=
EXTT10=
EXTT11=
PLAYORDER=
